<mxfile host="app.diagrams.net" modified="2024-02-01T07:03:46.373Z" agent="Mozilla/5.0 (Macintosh; Intel Mac OS X 10_15_7) AppleWebKit/537.36 (KHTML, like Gecko) Chrome/121.0.0.0 Safari/537.36" version="23.1.0" etag="hRpfZM03WIx1sCMuqlNe" type="github">
  <diagram name="ページ1" id="7dYc9aQxgYUGC4nWUOGB">
    <mxGraphModel>
      <root>
        <mxCell id="0" />
        <mxCell id="1" parent="0" />
      </root>
    </mxGraphModel>
  </diagram>
</mxfile>
